<?xml version="1.0" encoding="utf-8"?>
<!-- Generator: Adobe Illustrator 19.2.1, SVG Export Plug-In . SVG Version: 6.00 Build 0)  -->
<svg version="1.1" id="Layer_1" xmlns="http://www.w3.org/2000/svg" xmlns:xlink="http://www.w3.org/1999/xlink" x="0px" y="0px"
	 viewBox="0 0 410.4 72" style="enable-background:new 0 0 410.4 72;" xml:space="preserve">
<style type="text/css">
	.st0{fill:#fff;}
	.st1{fill:#fff;}
</style>
<path class="st0" d="M49.2,43.3H33.8v15.5h-6.2V13.6H49c8,0,17.5,4.7,17.5,14.9C66.6,37.8,57.2,43.3,49.2,43.3z M49.4,18.8H33.8
	v19.6h15.1c5.1,0,11.8-3.9,11.8-9.8C60.7,22.2,54.8,18.8,49.4,18.8z"/>
<path class="st0" d="M99.8,59.5c-14.2,0-27.2-9.5-27.2-23.4c0-14.2,13-23.4,27.2-23.4S127,22.4,127,36.2
	C127,50.2,114.1,59.5,99.8,59.5z M99.8,17.7c-12,0-21.2,8.2-21.2,18.5c0,10.1,9.2,18.3,21.2,18.3c12.1,0,21.2-8.1,21.2-18.3
	C121.1,26,111.9,17.7,99.8,17.7z"/>
<path class="st0" d="M157.2,43.3h-15.3v15.5h-6.2V13.6h21.4c8,0,17.5,4.7,17.5,14.9C174.6,37.8,165.2,43.3,157.2,43.3z M157.5,18.8
	h-15.6v19.6H157c5.2,0,11.8-3.9,11.8-9.8C168.7,22.2,162.8,18.8,157.5,18.8z"/>
<path class="st0" d="M281.8,58.7l-5-10.7h-25.2l-5,10.7h-6.2L262,13.5h5l21.2,45.3L281.8,58.7L281.8,58.7z M264.3,21L264.3,21
	l-10.4,22.2h20.7L264.3,21z"/>
<path class="st0" d="M329.5,58.7c0,0-14-16.2-15.7-18.1h-11.3v18.1h-6.2l-0.1-45.1h23.1c8,0,16.3,5.1,16.3,13.4
	c0,7.2-7.2,13.1-14.4,13.5c-0.1,0.1-0.5,0-0.6,0.1l0.6,0.5l14.8,17l0.3,0.6C336.3,58.7,329.5,58.7,329.5,58.7z M319.5,18.4h-17.1
	v17.3h17.1c5.1,0,10.2-3.9,10.2-8.6C329.8,21.8,324.7,18.4,319.5,18.4z"/>
<path class="st0" d="M368.1,18.4v40.4h-6.2V18.4h-20.5l-0.1-4.8h47.2v4.8H368.1z"/>
<path class="st1" d="M209.8,32.9c-1.7,0-3.1,1.4-3.1,3.1c0,1.7,1.4,3.1,3.1,3.1c1.7,0,3.1-1.4,3.1-3.1
	C212.9,34.3,211.5,32.9,209.8,32.9z M201.4,42.3c-0.6,0-1.1,0.2-1.5,0.6l-5,5c-0.8,0.8-0.8,2.2,0,3.1c0.8,0.8,2.2,0.8,3.1,0l5-5
	c0.8-0.8,0.8-2.2,0-3.1C202.5,42.5,201.9,42.3,201.4,42.3z M218.3,29.7c0.6,0,1.1-0.2,1.5-0.6l5-5c0.4-0.4,0.6-0.9,0.6-1.5
	s-0.2-1.1-0.6-1.5c-0.8-0.8-2.2-0.8-3.1,0l-5,5c-0.4,0.4-0.6,1-0.6,1.5c0,0.6,0.2,1.1,0.6,1.5C217.2,29.5,217.7,29.7,218.3,29.7z
	 M197.9,21c-0.8-0.8-2.2-0.8-3.1,0c-0.4,0.4-0.6,1-0.6,1.5c0,0.6,0.2,1.1,0.6,1.5l5,5c0.4,0.4,1,0.6,1.5,0.6c0.6,0,1.1-0.2,1.5-0.6
	s0.6-0.9,0.6-1.5s-0.2-1.1-0.6-1.5L197.9,21z M219.8,42.9c-0.4-0.4-0.9-0.6-1.5-0.6s-1.1,0.2-1.5,0.6c-0.8,0.8-0.8,2.2,0,3.1l5,5
	c0.8,0.8,2.2,0.8,3.1,0c0.4-0.4,0.6-1,0.6-1.5c0-0.6-0.2-1.1-0.6-1.5L219.8,42.9z M209.8,26.2c1.2,0,2.2-1,2.2-2.2v-9.5
	c0-1.2-1-2.2-2.2-2.2s-2.2,1-2.2,2.2V24C207.7,25.2,208.6,26.2,209.8,26.2z M209.8,45.8c-1.2,0-2.2,1-2.2,2.2v9.5
	c0,1.2,1,2.2,2.2,2.2s2.2-1,2.2-2.2V48C212,46.8,211,45.8,209.8,45.8z M200,36c0-1.2-1-2.2-2.2-2.2h-9.5c-1.2,0-2.2,1-2.2,2.2
	s1,2.2,2.2,2.2h9.5C199,38.2,200,37.2,200,36z M231.3,33.8h-9.5c-1.2,0-2.2,1-2.2,2.2s1,2.2,2.2,2.2h9.5c1.2,0,2.2-1,2.2-2.2
	S232.5,33.8,231.3,33.8z"/>
<g>
	<path class="st0" d="M395.6,19.6c-2.1,0-3.8-1.5-3.8-3.4s1.7-3.4,3.8-3.4c2.1,0,3.8,1.5,3.8,3.4S397.8,19.6,395.6,19.6z
		 M395.6,13.3c-1.8,0-3.3,1.3-3.3,3c0,1.6,1.5,3,3.3,3s3.3-1.3,3.3-3C398.9,14.6,397.5,13.3,395.6,13.3z M397,18.1
		c-0.1-0.1-1.1-1.4-1.3-1.5h-0.8V18h-0.6v-3.8c0.2,0,1.9,0,1.9,0c0.7,0,1.4,0.4,1.4,1.1c0,0.6-0.5,1.1-1.1,1.2l1.2,1.4L397,18.1z
		 M396.2,14.7h-1.3V16h1.3c0.4,0,0.8-0.3,0.8-0.7C396.9,14.9,396.6,14.7,396.2,14.7z"/>
</g>
</svg>
