<svg id="Rocket_NewBusiness" xmlns="http://www.w3.org/2000/svg" viewBox="0 0 56.35 112.56"><defs><style>.cls-1{fill:#fff;}</style></defs><title>Rocket_icon</title><path class="cls-1" d="M127.58,144.44a24.48,24.48,0,0,0-11.24-9.09c.83-4.68,2.25-12.84,3.74-22.08C127.13,119.54,135.64,130.8,127.58,144.44Zm-49.88,0c-8.34-14.19,1.57-26,7.9-31.51,1.4,9.28,2.7,17.61,3.44,22.39A24.42,24.42,0,0,0,77.7,144.44Zm26.82-6.13V115.08l-1.87-3.77-1.88,3.77v23.23H95.28c-1.32-8.38-10.45-66.5-10.45-75.2,0-15.57,14.39-28.41,17.81-31.24,3.42,2.87,17.82,15.87,17.82,31.24,0,16.56-9,67.5-10.43,75.2Zm-1.87-86.67a7.83,7.83,0,1,0,7.83,7.83A7.84,7.84,0,0,0,102.64,51.63Z" transform="translate(-74.51 -31.88)"/></svg>